# xmcd CD database file
#
# Track frame offsets:
#	150
#	19097
#	38657
#	59092
#
# Disc length: 978 seconds
#
# Revision: 0
# Processed by: cddbd v1.5.1PL0 Copyright (c) Steve Scherf et al.
# Submitted via: CDex 1.51
#
DISCID=2e03d004
DTITLE=ARCH - DAYS
DYEAR=2000
DGENRE=Rock
TTITLE0=DAYS
TTITLE1=(We Got) Sweethearts
TTITLE2=Traveler's Tale
TTITLE3=Boy Meets Sound
EXTD=YEAR: 2000
EXTT0=
EXTT1=
EXTT2=
EXTT3=
PLAYORDER=
